<svg id="artwork" xmlns="http://www.w3.org/2000/svg" xmlns:xlink="http://www.w3.org/1999/xlink" viewBox="0 0 108 32"><defs><style>.cls-1{fill:#a6a6a6;}.cls-10,.cls-2,.cls-9{fill:#fff;}.cls-3{fill:url(#linear-gradient);}.cls-4{fill:url(#linear-gradient-2);}.cls-5{fill:url(#linear-gradient-3);}.cls-6{fill:url(#linear-gradient-4);}.cls-7{opacity:0.2;}.cls-7,.cls-8,.cls-9{isolation:isolate;}.cls-8{opacity:0.12;}.cls-9{opacity:0.25;}.cls-10{stroke:#fff;stroke-miterlimit:10;stroke-width:0.2px;}</style><linearGradient id="linear-gradient" x1="17.44" y1="167.03" x2="4.01" y2="153.61" gradientTransform="matrix(1, 0, 0, -1, 0, 174)" gradientUnits="userSpaceOnUse"><stop offset="0" stop-color="#00a0ff"/><stop offset="0.01" stop-color="#00a1ff"/><stop offset="0.26" stop-color="#00beff"/><stop offset="0.51" stop-color="#00d2ff"/><stop offset="0.76" stop-color="#00dfff"/><stop offset="1" stop-color="#00e3ff"/></linearGradient><linearGradient id="linear-gradient-2" x1="27.07" y1="158" x2="7.71" y2="158" gradientTransform="matrix(1, 0, 0, -1, 0, 174)" gradientUnits="userSpaceOnUse"><stop offset="0" stop-color="#ffe000"/><stop offset="0.41" stop-color="#ffbd00"/><stop offset="0.78" stop-color="orange"/><stop offset="1" stop-color="#ff9c00"/></linearGradient><linearGradient id="linear-gradient-3" x1="19.86" y1="156.16" x2="1.65" y2="137.96" gradientTransform="matrix(1, 0, 0, -1, 0, 174)" gradientUnits="userSpaceOnUse"><stop offset="0" stop-color="#ff3a44"/><stop offset="1" stop-color="#c31162"/></linearGradient><linearGradient id="linear-gradient-4" x1="5.84" y1="173.86" x2="13.97" y2="165.73" gradientTransform="matrix(1, 0, 0, -1, 0, 174)" gradientUnits="userSpaceOnUse"><stop offset="0" stop-color="#32a071"/><stop offset="0.07" stop-color="#2da771"/><stop offset="0.48" stop-color="#15cf74"/><stop offset="0.8" stop-color="#06e775"/><stop offset="1" stop-color="#00f076"/></linearGradient></defs><title>Artboard 1</title><rect width="108" height="32" rx="4" ry="4"/><path class="cls-1" d="M104,.64A3.36,3.36,0,0,1,107.36,4V28A3.36,3.36,0,0,1,104,31.36H4A3.36,3.36,0,0,1,.64,28V4A3.36,3.36,0,0,1,4,.64H104M104,0H4A4,4,0,0,0,0,4V28a4,4,0,0,0,4,4H104a4,4,0,0,0,4-4V4a4,4,0,0,0-4-4Z"/><path class="cls-2" d="M54.51,17.4a3.4,3.4,0,1,0,3.42,3.4A3.35,3.35,0,0,0,54.51,17.4Zm0,5.46a2.07,2.07,0,1,1,1.92-2.06A2,2,0,0,1,54.51,22.87ZM47.06,17.4a3.4,3.4,0,1,0,3.42,3.4A3.35,3.35,0,0,0,47.06,17.4Zm0,5.46A2.07,2.07,0,1,1,49,20.8,2,2,0,0,1,47.06,22.87Zm-8.86-4.42v1.44h3.45a3,3,0,0,1-.79,1.82,3.54,3.54,0,0,1-2.67,1.06,3.84,3.84,0,0,1,0-7.68,3.68,3.68,0,0,1,2.6,1l1-1a5,5,0,0,0-3.62-1.46,5.28,5.28,0,1,0,0,10.57,4.83,4.83,0,0,0,3.69-1.48,4.77,4.77,0,0,0,1.25-3.38,4.7,4.7,0,0,0-.08-.9Zm36.25,1.12a3.16,3.16,0,0,0-2.91-2.17,3.23,3.23,0,0,0-3.21,3.4,3.33,3.33,0,0,0,3.38,3.4,3.38,3.38,0,0,0,2.84-1.51l-1.16-.77a1.94,1.94,0,0,1-1.68.94,1.73,1.73,0,0,1-1.65-1L74.6,20ZM69.8,20.7a1.87,1.87,0,0,1,1.78-2,1.32,1.32,0,0,1,1.26.72ZM66.1,24h1.5V14H66.1Zm-2.45-5.84H63.6a2.36,2.36,0,0,0-1.79-.76,3.41,3.41,0,0,0,0,6.81,2.32,2.32,0,0,0,1.79-.77h.05v.49c0,1.3-.7,2-1.82,2a1.88,1.88,0,0,1-1.71-1.21l-1.3.54a3.24,3.24,0,0,0,3,2c1.75,0,3.24-1,3.24-3.54V17.61H63.65Zm-1.71,4.7a2.07,2.07,0,0,1,0-4.12,1.92,1.92,0,0,1,1.82,2.07A1.9,1.9,0,0,1,61.94,22.87ZM81.44,14H77.87V24h1.49V20.21h2.08a3.11,3.11,0,1,0,0-6.21Zm0,4.82H79.36V15.39h2.12a1.71,1.71,0,1,1,0,3.43Zm9.23-1.44A2.8,2.8,0,0,0,88,18.91l1.33.55a1.41,1.41,0,0,1,1.36-.73A1.44,1.44,0,0,1,92.3,20v.1a3.3,3.3,0,0,0-1.56-.39c-1.43,0-2.88.78-2.88,2.25a2.31,2.31,0,0,0,2.48,2.2,2.11,2.11,0,0,0,1.9-1h.05V24h1.44V20.15A2.74,2.74,0,0,0,90.71,17.38Zm-.18,5.48c-.49,0-1.17-.24-1.17-.85,0-.77.85-1.07,1.58-1.07a2.66,2.66,0,0,1,1.36.33A1.81,1.81,0,0,1,90.53,22.86ZM99,17.6l-1.71,4.34h-.05L95.46,17.6H93.85l2.66,6.06L95,27h1.56l4.1-9.43ZM85.55,24H87V14H85.55Z"/><path class="cls-3" d="M8.35,6A1.6,1.6,0,0,0,8,7.15V24.85A1.6,1.6,0,0,0,8.35,26l.06.06,9.91-9.91v-.23L8.41,6Z"/><path class="cls-4" d="M21.62,19.42l-3.3-3.31v-.23l3.3-3.3.07,0,3.91,2.22a1.21,1.21,0,0,1,0,2.31L21.7,19.38Z"/><path class="cls-5" d="M21.7,19.38,18.32,16l-10,10A1.3,1.3,0,0,0,10,26L21.7,19.38"/><path class="cls-6" d="M21.7,12.62,10,6A1.3,1.3,0,0,0,8.35,6l10,10Z"/><path class="cls-7" d="M21.62,19.31,10,25.9a1.33,1.33,0,0,1-1.6,0h0L8.35,26h0l.06.06h0A1.33,1.33,0,0,0,10,26L21.7,19.38Z"/><path class="cls-8" d="M8.35,25.85A1.6,1.6,0,0,1,8,24.73v.12A1.6,1.6,0,0,0,8.35,26l.06-.06Z"/><path class="cls-8" d="M25.61,17l-4,2.27.07.07,3.91-2.22A1.4,1.4,0,0,0,26.45,16h0A1.49,1.49,0,0,1,25.61,17Z"/><path class="cls-9" d="M10,6.1,25.61,15a1.49,1.49,0,0,1,.84,1h0a1.4,1.4,0,0,0-.84-1.16L10,6c-1.12-.64-2-.11-2,1.17v.12C8,6,8.89,5.46,10,6.1Z"/><path class="cls-10" d="M33.74,10.4h-.62V5.6h1.64A1.52,1.52,0,0,1,35.81,6a1.39,1.39,0,0,1,0,2,1.51,1.51,0,0,1-1.06.41h-1Zm0-2.53h1a.8.8,0,0,0,.62-.26.83.83,0,0,0,0-1.15.8.8,0,0,0-.62-.26h-1Z"/><path class="cls-10" d="M41,9.78a2.49,2.49,0,0,1-3.52,0A2.45,2.45,0,0,1,36.74,8a2.45,2.45,0,0,1,.71-1.78,2.48,2.48,0,0,1,3.52,0A2.45,2.45,0,0,1,41.67,8,2.46,2.46,0,0,1,41,9.78Zm-3.06-.4a1.85,1.85,0,0,0,2.61,0A1.88,1.88,0,0,0,41,8a1.88,1.88,0,0,0-.53-1.38,1.85,1.85,0,0,0-2.61,0A1.88,1.88,0,0,0,37.37,8,1.88,1.88,0,0,0,37.9,9.38Z"/><path class="cls-10" d="M42.53,10.4V5.6h1.74a1.41,1.41,0,0,1,1,.37,1.21,1.21,0,0,1,.41.94,1,1,0,0,1-.18.6,1.11,1.11,0,0,1-.47.4v0a1.22,1.22,0,0,1,.58.42,1.09,1.09,0,0,1,.23.68,1.26,1.26,0,0,1-.43,1,1.48,1.48,0,0,1-1,.39Zm.62-2.74h1.12a.72.72,0,0,0,.56-.23.72.72,0,0,0,0-1,.69.69,0,0,0-.54-.23H43.15Zm0,2.15h1.24A.74.74,0,0,0,45,9.56.8.8,0,0,0,45.19,9a.81.81,0,0,0-.82-.78H43.15Z"/><path class="cls-10" d="M46.65,10.4V5.6h.62v4.8Z"/><path class="cls-10" d="M51.17,6.19H49V7.71h2v.58H49V9.81h2.19v.59h-2.8V5.6h2.8Z"/><path class="cls-10" d="M52.13,10.4V5.6h1.64A1.52,1.52,0,0,1,54.83,6a1.38,1.38,0,0,1,.12,1.91,1.43,1.43,0,0,1-.82.49v0l1.35,2v0h-.73L53.44,8.46h-.68V10.4Zm.62-2.52h1a.91.91,0,0,0,.63-.24A.79.79,0,0,0,54.64,7a.84.84,0,0,0-.23-.58.8.8,0,0,0-.62-.26h-1Z"/><path class="cls-10" d="M55.88,10.4V9.76l2.55-3.57H56V5.6h3.16v.64L56.59,9.81h2.58v.59Z"/><path class="cls-10" d="M61.4,10.4V9.76L64,6.19H61.51V5.6h3.16v.64L62.12,9.81H64.7v.59Z"/></svg>